<svg width="44" height="43" viewBox="0 0 44 43" fill="none" xmlns="http://www.w3.org/2000/svg">
<path d="M42.7711 21.4999C42.7711 32.9716 33.4716 42.2711 21.9999 42.2711C10.5283 42.2711 1.22876 32.9716 1.22876 21.4999C1.22876 10.0283 10.5283 0.72876 21.9999 0.72876C33.4716 0.72876 42.7711 10.0283 42.7711 21.4999Z" fill="#FAFAFA"/>
<path fill-rule="evenodd" clip-rule="evenodd" d="M43.5 21.5C43.5 33.3741 33.8741 43 22 43C10.1259 43 0.5 33.3741 0.5 21.5C0.5 9.62588 10.1259 0 22 0C33.8741 0 43.5 9.62588 43.5 21.5ZM22 42.2712C33.4716 42.2712 42.7712 32.9716 42.7712 21.5C42.7712 10.0284 33.4716 0.728814 22 0.728814C10.5284 0.728814 1.22881 10.0284 1.22881 21.5C1.22881 32.9716 10.5284 42.2712 22 42.2712Z" fill="#0F152D"/>
<path d="M39.6737 23.0486C39.6737 33.6649 31.0675 42.2711 20.4512 42.2711C9.83495 42.2711 1.22876 33.6649 1.22876 23.0486C1.22876 12.4324 9.83495 3.82617 20.4512 3.82617C31.0675 3.82617 39.6737 12.4324 39.6737 23.0486Z" fill="#FAFAFA"/>
<path fill-rule="evenodd" clip-rule="evenodd" d="M40.4025 23.0487C40.4025 34.0675 31.4701 43 20.4513 43C9.43249 43 0.5 34.0675 0.5 23.0487C0.5 12.0299 9.43249 3.09741 20.4513 3.09741C31.4701 3.09741 40.4025 12.0299 40.4025 23.0487ZM20.4513 42.2711C31.0675 42.2711 39.6737 33.665 39.6737 23.0487C39.6737 12.4324 31.0675 3.82623 20.4513 3.82623C9.835 3.82623 1.22881 12.4324 1.22881 23.0487C1.22881 33.665 9.835 42.2711 20.4513 42.2711Z" fill="#0F152D"/>
<path d="M35.3008 25.2352C35.3008 34.644 27.6735 42.2713 18.2648 42.2713C8.85604 42.2713 1.22876 34.644 1.22876 25.2352C1.22876 15.8265 8.85604 8.19922 18.2648 8.19922C27.6735 8.19922 35.3008 15.8265 35.3008 25.2352Z" fill="#FAFAFA"/>
<path fill-rule="evenodd" clip-rule="evenodd" d="M36.0297 25.2353C36.0297 35.0465 28.0761 43.0001 18.2648 43.0001C8.45359 43.0001 0.5 35.0465 0.5 25.2353C0.5 15.424 8.45359 7.47046 18.2648 7.47046C28.0761 7.47046 36.0297 15.424 36.0297 25.2353ZM18.2648 42.2713C27.6736 42.2713 35.3008 34.644 35.3008 25.2353C35.3008 15.8266 27.6736 8.19927 18.2648 8.19927C8.8561 8.19927 1.22881 15.8266 1.22881 25.2353C1.22881 34.644 8.8561 42.2713 18.2648 42.2713Z" fill="#0F152D"/>
<path d="M31.6567 27.0572C31.6567 35.4597 24.8452 42.2712 16.4427 42.2712C8.04029 42.2712 1.22876 35.4597 1.22876 27.0572C1.22876 18.6548 8.04029 11.8433 16.4427 11.8433C24.8452 11.8433 31.6567 18.6548 31.6567 27.0572Z" fill="#FAFAFA"/>
<path fill-rule="evenodd" clip-rule="evenodd" d="M32.3856 27.0573C32.3856 35.8623 25.2478 43.0001 16.4428 43.0001C7.63783 43.0001 0.5 35.8623 0.5 27.0573C0.5 18.2523 7.63783 11.1145 16.4428 11.1145C25.2478 11.1145 32.3856 18.2523 32.3856 27.0573ZM16.4428 42.2713C24.8452 42.2713 31.6568 35.4598 31.6568 27.0573C31.6568 18.6548 24.8452 11.8433 16.4428 11.8433C8.04035 11.8433 1.22881 18.6548 1.22881 27.0573C1.22881 35.4598 8.04035 42.2713 16.4428 42.2713Z" fill="#0F152D"/>
<path d="M28.1949 28.7882C28.1949 36.2347 22.1583 42.2713 14.7118 42.2713C7.26533 42.2713 1.22876 36.2347 1.22876 28.7882C1.22876 21.3417 7.26533 15.3052 14.7118 15.3052C22.1583 15.3052 28.1949 21.3417 28.1949 28.7882Z" fill="#FAFAFA"/>
<path fill-rule="evenodd" clip-rule="evenodd" d="M28.9237 28.788C28.9237 36.637 22.5609 42.9999 14.7119 42.9999C6.86287 42.9999 0.5 36.637 0.5 28.788C0.5 20.939 6.86287 14.5762 14.7119 14.5762C22.5609 14.5762 28.9237 20.939 28.9237 28.788ZM14.7119 42.2711C22.1583 42.2711 28.1949 36.2345 28.1949 28.788C28.1949 21.3416 22.1583 15.305 14.7119 15.305C7.26538 15.305 1.22881 21.3416 1.22881 28.788C1.22881 36.2345 7.26538 42.2711 14.7119 42.2711Z" fill="#0F152D"/>
<path d="M24.733 30.519C24.733 37.0095 19.4714 42.2711 12.9809 42.2711C6.49036 42.2711 1.22876 37.0095 1.22876 30.519C1.22876 24.0284 6.49036 18.7668 12.9809 18.7668C19.4714 18.7668 24.733 24.0284 24.733 30.519Z" fill="#FAFAFA"/>
<path fill-rule="evenodd" clip-rule="evenodd" d="M25.4619 30.519C25.4619 37.412 19.874 43 12.9809 43C6.0879 43 0.5 37.412 0.5 30.519C0.5 23.626 6.0879 18.0381 12.9809 18.0381C19.874 18.0381 25.4619 23.626 25.4619 30.519ZM12.9809 42.2711C19.4714 42.2711 24.7331 37.0095 24.7331 30.519C24.7331 24.0285 19.4714 18.7669 12.9809 18.7669C6.49042 18.7669 1.22881 24.0285 1.22881 30.519C1.22881 37.0095 6.49042 42.2711 12.9809 42.2711Z" fill="#0F152D"/>
<path d="M20.3601 32.7056C20.3601 37.9885 16.0774 42.2712 10.7944 42.2712C5.51146 42.2712 1.22876 37.9885 1.22876 32.7056C1.22876 27.4226 5.51146 23.1399 10.7944 23.1399C16.0774 23.1399 20.3601 27.4226 20.3601 32.7056Z" fill="#FAFAFA"/>
<path fill-rule="evenodd" clip-rule="evenodd" d="M21.089 32.7056C21.089 38.3911 16.48 43.0001 10.7945 43.0001C5.109 43.0001 0.5 38.3911 0.5 32.7056C0.5 27.0201 5.109 22.4111 10.7945 22.4111C16.48 22.4111 21.089 27.0201 21.089 32.7056ZM10.7945 42.2713C16.0775 42.2713 20.3602 37.9886 20.3602 32.7056C20.3602 27.4226 16.0775 23.1399 10.7945 23.1399C5.51151 23.1399 1.22881 27.4226 1.22881 32.7056C1.22881 37.9886 5.51151 42.2713 10.7945 42.2713Z" fill="#0F152D"/>
<path d="M16.5338 34.6186C16.5338 38.845 13.1077 42.2711 8.8813 42.2711C4.65492 42.2711 1.22876 38.845 1.22876 34.6186C1.22876 30.3922 4.65492 26.9661 8.8813 26.9661C13.1077 26.9661 16.5338 30.3922 16.5338 34.6186Z" fill="#FAFAFA"/>
<path fill-rule="evenodd" clip-rule="evenodd" d="M17.2627 34.6187C17.2627 39.2476 13.5103 43 8.88136 43C4.25246 43 0.5 39.2476 0.5 34.6187C0.5 29.9898 4.25246 26.2373 8.88136 26.2373C13.5103 26.2373 17.2627 29.9898 17.2627 34.6187ZM8.88136 42.2712C13.1077 42.2712 16.5339 38.845 16.5339 34.6187C16.5339 30.3923 13.1077 26.9661 8.88136 26.9661C4.65497 26.9661 1.22881 30.3923 1.22881 34.6187C1.22881 38.845 4.65497 42.2712 8.88136 42.2712Z" fill="#0F152D"/>
<path d="M13.072 36.3496C13.072 39.62 10.4208 42.2712 7.15037 42.2712C3.87996 42.2712 1.22876 39.62 1.22876 36.3496C1.22876 33.0792 3.87996 30.428 7.15037 30.428C10.4208 30.428 13.072 33.0792 13.072 36.3496Z" fill="#FAFAFA"/>
<path fill-rule="evenodd" clip-rule="evenodd" d="M13.8008 36.3496C13.8008 40.0226 10.8234 43.0001 7.15042 43.0001C3.4775 43.0001 0.5 40.0226 0.5 36.3496C0.5 32.6767 3.4775 29.6992 7.15042 29.6992C10.8234 29.6992 13.8008 32.6767 13.8008 36.3496ZM7.15042 42.2713C10.4208 42.2713 13.072 39.6201 13.072 36.3496C13.072 33.0792 10.4208 30.428 7.15042 30.428C3.88001 30.428 1.22881 33.0792 1.22881 36.3496C1.22881 39.6201 3.88001 42.2713 7.15042 42.2713Z" fill="#0F152D"/>
<path d="M10.8855 37.4429C10.8855 40.1095 8.7238 42.2713 6.05715 42.2713C3.3905 42.2713 1.22876 40.1095 1.22876 37.4429C1.22876 34.7762 3.3905 32.6145 6.05715 32.6145C8.7238 32.6145 10.8855 34.7762 10.8855 37.4429Z" fill="#FAFAFA"/>
<path fill-rule="evenodd" clip-rule="evenodd" d="M11.6144 37.4427C11.6144 40.5119 9.12636 42.9999 6.0572 42.9999C2.98804 42.9999 0.5 40.5119 0.5 37.4427C0.5 34.3735 2.98804 31.8855 6.0572 31.8855C9.12636 31.8855 11.6144 34.3735 11.6144 37.4427ZM6.0572 42.2711C8.72385 42.2711 10.8856 40.1093 10.8856 37.4427C10.8856 34.7761 8.72385 32.6143 6.0572 32.6143C3.39056 32.6143 1.22881 34.7761 1.22881 37.4427C1.22881 40.1093 3.39056 42.2711 6.0572 42.2711Z" fill="#0F152D"/>
<path d="M8.8813 38.4449C8.8813 40.5581 7.16822 42.2712 5.05503 42.2712C2.94184 42.2712 1.22876 40.5581 1.22876 38.4449C1.22876 36.3317 2.94184 34.6187 5.05503 34.6187C7.16822 34.6187 8.8813 36.3317 8.8813 38.4449Z" fill="#FAFAFA"/>
<path fill-rule="evenodd" clip-rule="evenodd" d="M9.61017 38.445C9.61017 40.9607 7.57079 43.0001 5.05508 43.0001C2.53938 43.0001 0.5 40.9607 0.5 38.445C0.5 35.9293 2.53938 33.8899 5.05508 33.8899C7.57079 33.8899 9.61017 35.9293 9.61017 38.445ZM5.05508 42.2712C7.16828 42.2712 8.88136 40.5582 8.88136 38.445C8.88136 36.3318 7.16828 34.6187 5.05508 34.6187C2.94189 34.6187 1.22881 36.3318 1.22881 38.445C1.22881 40.5582 2.94189 42.2712 5.05508 42.2712Z" fill="#0F152D"/>
<path d="M7.05927 39.3559C7.05927 40.966 5.75406 42.2712 4.14401 42.2712C2.53396 42.2712 1.22876 40.966 1.22876 39.3559C1.22876 37.7459 2.53396 36.4407 4.14401 36.4407C5.75406 36.4407 7.05927 37.7459 7.05927 39.3559Z" fill="#FAFAFA"/>
<path fill-rule="evenodd" clip-rule="evenodd" d="M7.78814 39.356C7.78814 41.3685 6.15663 43 4.14407 43C2.1315 43 0.5 41.3685 0.5 39.356C0.5 37.3434 2.1315 35.7119 4.14407 35.7119C6.15663 35.7119 7.78814 37.3434 7.78814 39.356ZM4.14407 42.2712C5.75412 42.2712 7.05932 40.966 7.05932 39.356C7.05932 37.7459 5.75412 36.4407 4.14407 36.4407C2.53402 36.4407 1.22881 37.7459 1.22881 39.356C1.22881 40.966 2.53402 42.2712 4.14407 42.2712Z" fill="#0F152D"/>
<path d="M5.05503 40.358C5.05503 41.4146 4.19849 42.2711 3.1419 42.2711C2.0853 42.2711 1.22876 41.4146 1.22876 40.358C1.22876 39.3014 2.0853 38.4448 3.1419 38.4448C4.19849 38.4448 5.05503 39.3014 5.05503 40.358Z" fill="#FAFAFA"/>
<path fill-rule="evenodd" clip-rule="evenodd" d="M5.7839 40.358C5.7839 41.8171 4.60106 43 3.14195 43C1.68284 43 0.5 41.8171 0.5 40.358C0.5 38.8989 1.68284 37.7161 3.14195 37.7161C4.60106 37.7161 5.7839 38.8989 5.7839 40.358ZM3.14195 42.2711C4.19854 42.2711 5.05508 41.4146 5.05508 40.358C5.05508 39.3014 4.19854 38.4449 3.14195 38.4449C2.08535 38.4449 1.22881 39.3014 1.22881 40.358C1.22881 41.4146 2.08535 42.2711 3.14195 42.2711Z" fill="#0F152D"/>
<path d="M3.77961 40.9959C3.77961 41.7003 3.20858 42.2713 2.50418 42.2713C1.79979 42.2713 1.22876 41.7003 1.22876 40.9959C1.22876 40.2915 1.79979 39.7205 2.50418 39.7205C3.20858 39.7205 3.77961 40.2915 3.77961 40.9959Z" fill="#FAFAFA"/>
<path fill-rule="evenodd" clip-rule="evenodd" d="M4.50847 40.9957C4.50847 42.1026 3.61115 42.9999 2.50424 42.9999C1.39733 42.9999 0.5 42.1026 0.5 40.9957C0.5 39.8888 1.39733 38.9915 2.50424 38.9915C3.61115 38.9915 4.50847 39.8888 4.50847 40.9957ZM2.50424 42.2711C3.20863 42.2711 3.77966 41.7001 3.77966 40.9957C3.77966 40.2913 3.20863 39.7203 2.50424 39.7203C1.79984 39.7203 1.22881 40.2913 1.22881 40.9957C1.22881 41.7001 1.79984 42.2711 2.50424 42.2711Z" fill="#0F152D"/>
<path d="M2.32198 41.7246C2.32198 42.0265 2.07725 42.2712 1.77537 42.2712C1.47349 42.2712 1.22876 42.0265 1.22876 41.7246C1.22876 41.4227 1.47349 41.178 1.77537 41.178C2.07725 41.178 2.32198 41.4227 2.32198 41.7246Z" fill="#FAFAFA"/>
<path fill-rule="evenodd" clip-rule="evenodd" d="M3.05085 41.7246C3.05085 42.429 2.47982 43.0001 1.77542 43.0001C1.07103 43.0001 0.5 42.429 0.5 41.7246C0.5 41.0202 1.07103 40.4492 1.77542 40.4492C2.47982 40.4492 3.05085 41.0202 3.05085 41.7246ZM1.77542 42.2713C2.07731 42.2713 2.32203 42.0265 2.32203 41.7246C2.32203 41.4228 2.07731 41.178 1.77542 41.178C1.47354 41.178 1.22881 41.4228 1.22881 41.7246C1.22881 42.0265 1.47354 42.2713 1.77542 42.2713Z" fill="#0F152D"/>
</svg>
