<svg width="24" height="24" viewBox="0 0 24 24" fill="none" xmlns="http://www.w3.org/2000/svg">
<mask id="mask0_2022_163" style="mask-type:alpha" maskUnits="userSpaceOnUse" x="0" y="0" width="24" height="24">
<rect width="24" height="24" fill="#D9D9D9"/>
</mask>
<g mask="url(#mask0_2022_163)">
<path d="M5.30775 20.5C4.80258 20.5 4.375 20.325 4.025 19.975C3.675 19.625 3.5 19.1974 3.5 18.6923V5.30775C3.5 4.80258 3.675 4.375 4.025 4.025C4.375 3.675 4.80258 3.5 5.30775 3.5H9.75775C9.83725 2.9385 10.0853 2.46483 10.502 2.079C10.9187 1.693 11.418 1.5 12 1.5C12.582 1.5 13.0813 1.693 13.498 2.079C13.9147 2.46483 14.1628 2.9385 14.2423 3.5H18.6923C19.1974 3.5 19.625 3.675 19.975 4.025C20.325 4.375 20.5 4.80258 20.5 5.30775V18.6923C20.5 19.1974 20.325 19.625 19.975 19.975C19.625 20.325 19.1974 20.5 18.6923 20.5H5.30775ZM12 4.34625C12.2167 4.34625 12.3958 4.27542 12.5375 4.13375C12.6792 3.99208 12.75 3.81292 12.75 3.59625C12.75 3.37958 12.6792 3.20042 12.5375 3.05875C12.3958 2.91708 12.2167 2.84625 12 2.84625C11.7833 2.84625 11.6042 2.91708 11.4625 3.05875C11.3208 3.20042 11.25 3.37958 11.25 3.59625C11.25 3.81292 11.3208 3.99208 11.4625 4.13375C11.6042 4.27542 11.7833 4.34625 12 4.34625ZM5 18.0422C5.9 17.1589 6.94583 16.4631 8.1375 15.9548C9.32917 15.4464 10.6167 15.1923 12 15.1923C13.3833 15.1923 14.6708 15.4464 15.8625 15.9548C17.0542 16.4631 18.1 17.1589 19 18.0422V5.30775C19 5.23075 18.9679 5.16025 18.9038 5.09625C18.8398 5.03208 18.7692 5 18.6923 5H5.30775C5.23075 5 5.16025 5.03208 5.09625 5.09625C5.03208 5.16025 5 5.23075 5 5.30775V18.0422ZM12 13.0385C12.9025 13.0385 13.6698 12.7225 14.302 12.0905C14.934 11.4583 15.25 10.691 15.25 9.7885C15.25 8.886 14.934 8.11867 14.302 7.4865C13.6698 6.8545 12.9025 6.5385 12 6.5385C11.0975 6.5385 10.3302 6.8545 9.698 7.4865C9.066 8.11867 8.75 8.886 8.75 9.7885C8.75 10.691 9.066 11.4583 9.698 12.0905C10.3302 12.7225 11.0975 13.0385 12 13.0385ZM6.44225 19H17.5577V18.7885C16.7679 18.0833 15.9016 17.5577 14.9587 17.2115C14.0157 16.8653 13.0295 16.6923 12 16.6923C10.9833 16.6923 10.0019 16.8638 9.05575 17.2068C8.10958 17.5498 7.23842 18.0706 6.44225 18.7693V19ZM12 11.5385C11.5192 11.5385 11.1073 11.367 10.7645 11.024C10.4215 10.6812 10.25 10.2693 10.25 9.7885C10.25 9.30767 10.4215 8.89583 10.7645 8.553C11.1073 8.21 11.5192 8.0385 12 8.0385C12.4808 8.0385 12.8927 8.21 13.2355 8.553C13.5785 8.89583 13.75 9.30767 13.75 9.7885C13.75 10.2693 13.5785 10.6812 13.2355 11.024C12.8927 11.367 12.4808 11.5385 12 11.5385Z" fill="#1C1B1F"/>
</g>
</svg>
