<svg width="24" height="24" viewBox="0 0 24 24" fill="none" xmlns="http://www.w3.org/2000/svg">
<mask id="mask0_2019_249" style="mask-type:alpha" maskUnits="userSpaceOnUse" x="0" y="0" width="24" height="24">
<rect width="24" height="24" fill="#D9D9D9"/>
</mask>
<g mask="url(#mask0_2019_249)">
<path d="M16.5385 21.7402V18.923H14.5193L17.4615 14.2598V17.077H19.4808L16.5385 21.7402ZM8.34626 21.5C8.09009 21.5 7.87543 21.4133 7.70226 21.24C7.52893 21.0668 7.44226 20.8522 7.44226 20.596V5.14425C7.44226 4.88808 7.52893 4.67342 7.70226 4.50025C7.87543 4.32708 8.09009 4.2405 8.34626 4.2405H10.1538V2.5H13.8463V4.2405H15.6558C15.9121 4.2405 16.1265 4.32708 16.299 4.50025C16.4715 4.67342 16.5578 4.88808 16.5578 5.14425V12.0963C16.2911 12.1091 16.0343 12.1383 15.7875 12.1838C15.5407 12.2292 15.2974 12.2942 15.0578 12.3787V5.73075H8.94226V17.9712H11.0385C11.0385 18.6353 11.143 19.2673 11.352 19.8673C11.5608 20.4673 11.8589 21.0115 12.2463 21.5H8.34626Z" fill="#1C1B1F"/>
</g>
</svg>
