<svg width="24" height="24" viewBox="0 0 24 24" fill="none" xmlns="http://www.w3.org/2000/svg">
<mask id="mask0_2021_1124" style="mask-type:alpha" maskUnits="userSpaceOnUse" x="0" y="0" width="24" height="24">
<rect width="24" height="24" fill="#D9D9D9"/>
</mask>
<g mask="url(#mask0_2021_1124)">
<path d="M10 11.6922C9.0375 11.6922 8.21358 11.3496 7.52825 10.6642C6.84275 9.97875 6.5 9.15475 6.5 8.19225C6.5 7.22975 6.84275 6.40583 7.52825 5.7205C8.21358 5.035 9.0375 4.69225 10 4.69225C10.9625 4.69225 11.7864 5.035 12.4718 5.7205C13.1573 6.40583 13.5 7.22975 13.5 8.19225C13.5 9.15475 13.1573 9.97875 12.4718 10.6642C11.7864 11.3496 10.9625 11.6922 10 11.6922ZM2.5 19.3077V17.0845C2.5 16.5795 2.62883 16.1222 2.8865 15.7125C3.14417 15.3028 3.50383 14.9858 3.9655 14.7615C4.79617 14.3475 5.69358 14.0017 6.65775 13.724C7.62175 13.4465 8.73583 13.3077 10 13.3077H10.2923C10.3731 13.3077 10.4602 13.318 10.5538 13.3385C10.4526 13.5743 10.369 13.8147 10.303 14.0595C10.2368 14.3045 10.182 14.5539 10.1385 14.8077H10C8.84867 14.8077 7.82942 14.9401 6.94225 15.2047C6.05508 15.4696 5.29225 15.768 4.65375 16.1C4.42692 16.2218 4.26125 16.3642 4.15675 16.527C4.05225 16.6898 4 16.8757 4 17.0845V17.8077H10.3C10.3743 18.0616 10.4708 18.3192 10.5895 18.5807C10.708 18.8422 10.8384 19.0846 10.9808 19.3077H2.5ZM16.1058 20.048L15.8828 18.721C15.6443 18.6505 15.4198 18.5582 15.2095 18.4442C14.9993 18.3301 14.7993 18.1871 14.6095 18.0152L13.3422 18.4557L12.6308 17.246L13.6655 16.4C13.5937 16.141 13.5577 15.8858 13.5577 15.6345C13.5577 15.3833 13.5937 15.1282 13.6655 14.8692L12.6405 14.0037L13.352 12.7942L14.6095 13.2442C14.7928 13.0724 14.9913 12.9311 15.2048 12.8202C15.4183 12.7092 15.6443 12.6185 15.8828 12.548L16.1058 11.2212H17.5288L17.7423 12.548C17.9808 12.6185 18.2067 12.7118 18.4202 12.828C18.6336 12.944 18.8319 13.093 19.0152 13.275L20.273 12.7942L20.9845 14.0345L19.9595 14.9C20.0313 15.1405 20.0673 15.391 20.0673 15.6515C20.0673 15.912 20.0313 16.1615 19.9595 16.4L20.9943 17.246L20.2828 18.4557L19.0152 18.0152C18.8256 18.1871 18.6256 18.3301 18.4152 18.4442C18.2051 18.5582 17.9808 18.6505 17.7423 18.721L17.5288 20.048H16.1058ZM16.8085 17.5385C17.3323 17.5385 17.7804 17.352 18.1528 16.979C18.5252 16.606 18.7115 16.1576 18.7115 15.6337C18.7115 15.1099 18.525 14.6618 18.152 14.2895C17.779 13.917 17.3306 13.7307 16.8068 13.7307C16.2831 13.7307 15.835 13.9172 15.4625 14.2902C15.09 14.6632 14.9038 15.1117 14.9038 15.6355C14.9038 16.1592 15.0903 16.6072 15.4633 16.9797C15.8363 17.3522 16.2847 17.5385 16.8085 17.5385ZM10 10.1922C10.55 10.1922 11.0208 9.99641 11.4125 9.60475C11.8042 9.21308 12 8.74225 12 8.19225C12 7.64225 11.8042 7.17141 11.4125 6.77975C11.0208 6.38808 10.55 6.19225 10 6.19225C9.45 6.19225 8.97917 6.38808 8.5875 6.77975C8.19583 7.17141 8 7.64225 8 8.19225C8 8.74225 8.19583 9.21308 8.5875 9.60475C8.97917 9.99641 9.45 10.1922 10 10.1922Z" fill="#1C1B1F"/>
</g>
</svg>
