<svg width="24" height="24" viewBox="0 0 24 24" fill="none" xmlns="http://www.w3.org/2000/svg">
<mask id="mask0_2019_243" style="mask-type:alpha" maskUnits="userSpaceOnUse" x="0" y="0" width="24" height="24">
<rect width="24" height="24" fill="#D9D9D9"/>
</mask>
<g mask="url(#mask0_2019_243)">
<path d="M12.1 21.5C10.77 21.5 9.52308 21.2477 8.35925 20.7432C7.19542 20.2387 6.18017 19.5532 5.3135 18.6865C4.44683 17.8198 3.76125 16.8046 3.25675 15.6407C2.75225 14.4769 2.5 13.23 2.5 11.9C2.5 9.71032 3.16767 7.75999 4.503 6.04899C5.83817 4.33816 7.56475 3.21607 9.68275 2.68274C9.49808 4.28791 9.66342 5.84432 10.1788 7.35199C10.6943 8.85966 11.5244 10.1859 12.6693 11.3307C13.8141 12.4756 15.1403 13.3057 16.648 13.8212C18.1557 14.3366 19.7121 14.5019 21.3173 14.3172C20.7943 16.4352 19.6747 18.1618 17.9585 19.497C16.2425 20.8323 14.2897 21.5 12.1 21.5ZM12.1 20C13.5667 20 14.925 19.6333 16.175 18.9C17.425 18.1667 18.4083 17.1574 19.125 15.8722C17.6917 15.7387 16.3333 15.3757 15.05 14.7832C13.7667 14.1907 12.6167 13.3855 11.6 12.3675C10.5833 11.3495 9.775 10.2004 9.175 8.92024C8.575 7.64007 8.21667 6.28332 8.1 4.84999C6.81667 5.56666 5.8125 6.55416 5.0875 7.81249C4.3625 9.07082 4 10.4333 4 11.9C4 14.15 4.7875 16.0625 6.3625 17.6375C7.9375 19.2125 9.85 20 12.1 20Z" fill="#1C1B1F"/>
</g>
</svg>
