<svg width="24" height="24" viewBox="0 0 24 24" fill="none" xmlns="http://www.w3.org/2000/svg">
<mask id="mask0_2019_258" style="mask-type:alpha" maskUnits="userSpaceOnUse" x="0" y="0" width="24" height="24">
<rect width="24" height="24" fill="#D9D9D9"/>
</mask>
<g mask="url(#mask0_2019_258)">
<path d="M19.5423 20.577L13.2616 14.296C12.7616 14.7088 12.1866 15.0319 11.5366 15.2652C10.8866 15.4986 10.2141 15.6152 9.5193 15.6152C7.81014 15.6152 6.36364 15.0235 5.1798 13.84C3.99597 12.6565 3.40405 11.2103 3.40405 9.50149C3.40405 7.79282 3.9958 6.34615 5.1793 5.16149C6.3628 3.97699 7.80897 3.38474 9.5178 3.38474C11.2265 3.38474 12.6731 3.97665 13.8578 5.16048C15.0423 6.34432 15.6346 7.79082 15.6346 9.49999C15.6346 10.2142 15.5147 10.8962 15.2751 11.5462C15.0352 12.1962 14.7153 12.7616 14.3153 13.2422L20.5961 19.523L19.5423 20.577ZM9.5193 14.1155C10.8078 14.1155 11.8991 13.6683 12.7933 12.774C13.6876 11.8798 14.1348 10.7885 14.1348 9.49999C14.1348 8.21148 13.6876 7.12015 12.7933 6.22598C11.8991 5.33165 10.8078 4.88449 9.5193 4.88449C8.2308 4.88449 7.13947 5.33165 6.2453 6.22598C5.35097 7.12015 4.9038 8.21148 4.9038 9.49999C4.9038 10.7885 5.35097 11.8798 6.2453 12.774C7.13947 13.6683 8.2308 14.1155 9.5193 14.1155Z" fill="#0F152D"/>
</g>
</svg>
