<svg width="24" height="24" viewBox="0 0 24 24" fill="none" xmlns="http://www.w3.org/2000/svg">
<mask id="mask0_2019_244" style="mask-type:alpha" maskUnits="userSpaceOnUse" x="0" y="0" width="24" height="24">
<rect width="24" height="24" fill="#D9D9D9"/>
</mask>
<g mask="url(#mask0_2019_244)">
<path d="M11.25 5.21151V1.51926H12.75V5.21151H11.25ZM17.323 7.73076L16.2943 6.70201L18.873 4.03851L19.9365 5.11726L17.323 7.73076ZM18.7885 12.75V11.25H22.4808V12.75H18.7885ZM11.25 22.4808V18.798H12.75V22.4808H11.25ZM6.69629 7.69051L4.03854 5.12701L5.12704 4.07301L7.74054 6.67701L6.69629 7.69051ZM18.8578 19.9615L16.2943 17.298L17.3078 16.2943L19.927 18.8423L18.8578 19.9615ZM1.51929 12.75V11.25H5.21154V12.75H1.51929ZM5.11729 19.9615L4.07304 18.873L6.65204 16.2943L7.19429 16.8058L7.74629 17.3328L5.11729 19.9615ZM12.0023 17.5C10.4751 17.5 9.17629 16.9655 8.10579 15.8965C7.03529 14.8275 6.50004 13.5294 6.50004 12.0023C6.50004 10.4751 7.03454 9.17626 8.10354 8.10576C9.17254 7.03526 10.4706 6.50001 11.9978 6.50001C13.525 6.50001 14.8238 7.03451 15.8943 8.10351C16.9648 9.17251 17.5 10.4706 17.5 11.9978C17.5 13.5249 16.9655 14.8238 15.8965 15.8943C14.8275 16.9648 13.5295 17.5 12.0023 17.5ZM12 16C13.1 16 14.0417 15.6083 14.825 14.825C15.6084 14.0417 16 13.1 16 12C16 10.9 15.6084 9.95834 14.825 9.17501C14.0417 8.39167 13.1 8.00001 12 8.00001C10.9 8.00001 9.95837 8.39167 9.17504 9.17501C8.3917 9.95834 8.00004 10.9 8.00004 12C8.00004 13.1 8.3917 14.0417 9.17504 14.825C9.95837 15.6083 10.9 16 12 16Z" fill="#1C1B1F"/>
</g>
</svg>
